<?xml version="1.0" standalone="no"?>
<!DOCTYPE svg PUBLIC "-//W3C//DTD SVG 20010904//EN"
 "http://www.w3.org/TR/2001/REC-SVG-20010904/DTD/svg10.dtd">
<svg version="1.0" xmlns="http://www.w3.org/2000/svg"
 width="350.000000pt" height="350.000000pt" viewBox="0 0 350.000000 350.000000"
 preserveAspectRatio="xMidYMid meet">
<metadata>
Created by potrace 1.11, written by Peter Selinger 2001-2013
</metadata>
<g transform="translate(0.000000,350.000000) scale(0.100000,-0.100000)"
fill="#000000" stroke="none">
<path d="M1590 3493 c-140 -19 -189 -28 -274 -49 -609 -151 -1109 -651 -1260
-1261 -22 -88 -29 -120 -41 -203 -12 -79 -16 -250 -6 -286 17 -62 62 -118 117
-144 l49 -24 507 0 c278 -1 509 -3 512 -6 3 -3 -258 -269 -580 -590 -544 -544
-586 -588 -599 -634 -54 -181 117 -342 294 -277 36 13 143 115 628 599 321
320 584 582 586 582 1 0 3 -231 3 -514 l1 -513 22 -44 c26 -49 57 -81 104
-106 79 -44 413 -11 632 62 448 148 798 444 1014 855 71 136 102 217 141 365
45 172 54 244 55 430 0 236 -23 384 -91 584 -124 365 -382 694 -711 905 -200
128 -481 232 -709 262 -49 6 -360 12 -394 7z m-65 -993 l0 -525 -525 0 c-518
0 -525 0 -524 20 4 66 51 209 104 319 166 342 474 596 846 696 38 10 76 18 84
17 12 -2 14 -72 15 -527z m535 513 c117 -21 337 -124 454 -212 252 -189 416
-430 495 -731 28 -107 35 -168 36 -315 0 -155 -14 -259 -49 -370 -1 -5 -7 -23
-11 -40 -14 -53 -75 -187 -112 -249 -153 -255 -380 -450 -645 -555 -88 -35
-237 -75 -246 -66 -7 7 -11 2535 -4 2548 2 5 16 6 31 2 14 -4 37 -9 51 -12z"/>
</g>
</svg>
